<svg xmlns="http://www.w3.org/2000/svg" viewBox="0 0 80 80" width="80" height="80"><defs><style>.cls-1{isolation:isolate;}.cls-2{fill:#406a95;fill-rule:evenodd;}</style></defs><title>frequently_asked_questions_icon</title><g id="Section_Icon" data-name="Section Icon" class="cls-1"><g id="Section_Icon-2" data-name="Section Icon"><path class="cls-2" d="M39.08,52.63a5,5,0,1,0,5,5A5.07,5.07,0,0,0,39.08,52.63ZM40,0A40,40,0,1,0,80,40,40,40,0,0,0,40,0Zm0,72.46A32.48,32.48,0,1,1,72.5,40,32.53,32.53,0,0,1,40,72.46Zm-.62-55.21C31.88,17.25,25,22.59,25,28.61a3.68,3.68,0,0,0,4,3.75c6,0,2.89-8.11,10.75-8.11,3.69,0,5.9,2,5.9,5.28,0,6-10.75,7.68-10.75,15a3.91,3.91,0,0,0,3.93,4.12c4.06,0,3.57-3,5-5.16,2-2.89,11.13-6,11.13-14C55,20.87,47.25,17.24,39.38,17.25Z"/></g></g></svg>